<svg width="20" height="21" viewBox="0 0 20 21" fill="none" xmlns="http://www.w3.org/2000/svg">
<path fill-rule="evenodd" clip-rule="evenodd" d="M14.9787 14.6475C14.98 14.8126 14.9269 14.86 14.7663 14.8562C14.31 14.8475 13.8537 14.8406 13.3982 14.8587C13.1694 14.8681 13.1006 14.8087 13.1037 14.5707C13.1175 13.545 13.1087 12.5187 13.1106 11.4926C13.1106 11.2113 13.0919 10.9326 12.9887 10.6675C12.8137 10.22 12.5119 9.91693 12.0113 9.87312C11.4787 9.82624 11.0919 10.0687 10.8307 10.5182C10.6594 10.8126 10.62 11.1412 10.6207 11.4775C10.6232 12.5144 10.615 13.5506 10.6269 14.5869C10.63 14.8101 10.5619 14.8656 10.3481 14.8581C9.89249 14.8425 9.43624 14.8463 8.98005 14.8569C8.80505 14.8612 8.75186 14.8087 8.75186 14.6312C8.75755 12.4962 8.75686 10.3612 8.75317 8.2263C8.75317 8.07318 8.78442 8.00437 8.95686 8.00818C9.44374 8.01874 9.93124 8.01874 10.4181 8.00818C10.5869 8.00505 10.6312 8.06624 10.6244 8.2238C10.6137 8.47943 10.6219 8.73562 10.6219 9.05812C11.3438 8.16562 12.2131 7.87255 13.2457 8.08068C14.2457 8.28249 14.9337 9.18255 14.9625 10.3882C14.9962 11.8069 14.9713 13.2275 14.9787 14.6475ZM6.57567 7.2138C5.96999 7.21249 5.49624 6.73249 5.49755 6.12255C5.49874 5.51999 5.98692 5.0288 6.58186 5.02999C7.17755 5.03187 7.6613 5.52499 7.65942 6.12812C7.65811 6.73943 7.18317 7.21499 6.57567 7.2138ZM7.24568 14.8587C6.79061 14.8406 6.3338 14.8475 5.87818 14.8562C5.71499 14.8594 5.6413 14.8294 5.64186 14.6394C5.64818 12.5056 5.64749 10.3726 5.64249 8.23874C5.64186 8.06755 5.68318 8.00312 5.86561 8.00818C6.3313 8.01999 6.79811 8.02318 7.26318 8.00687C7.47749 7.99937 7.51686 8.07874 7.51568 8.27249C7.50755 9.32874 7.51186 10.385 7.51186 11.4419C7.51186 12.4875 7.50568 13.5338 7.5163 14.58C7.5188 14.7925 7.46999 14.8676 7.24568 14.8587ZM17.4319 5.5313C17.3894 5.19187 17.3837 4.84249 17.1962 4.5388C16.5894 3.55443 15.7519 2.99374 14.5512 3.00005C11.5138 3.01568 8.4763 3.00005 5.43874 3.01068C4.98255 3.01187 4.51318 3.02687 4.0988 3.27187C3.08749 3.87062 2.49374 4.70749 2.50005 5.93437C2.51436 8.98193 2.50005 12.0294 2.50999 15.0775C2.51186 15.5069 2.51817 15.9562 2.74311 16.3431C3.27436 17.2582 3.97443 17.9376 5.12436 17.9331C5.15749 17.9331 5.18318 17.9487 5.21068 17.9631H14.7888C14.8419 17.9156 14.9069 17.9394 14.9669 17.9319C15.3112 17.8887 15.6669 17.8869 15.9725 17.6894C16.8269 17.1369 17.455 16.4412 17.4357 15.3419C17.4357 15.3225 17.4494 15.3051 17.4638 15.2888V5.71068C17.4212 5.6563 17.4394 5.59187 17.4319 5.5313Z" fill="#AFB0B6"/>
</svg>
