<svg width="16" height="16" viewBox="0 0 16 16" fill="none" xmlns="http://www.w3.org/2000/svg">
<path d="M0.338778 7.90428C0.338406 9.24859 0.689662 10.5612 1.35757 11.7182L0.274902 15.6712L4.3203 14.6104C5.43921 15.2196 6.69285 15.5387 7.96681 15.5388H7.97016C12.1757 15.5388 15.5992 12.1166 15.601 7.91029C15.6018 5.87203 14.8087 3.95538 13.3679 2.51339C11.9272 1.07153 10.0113 0.277053 7.96985 0.276123C3.76377 0.276123 0.340577 3.69814 0.33884 7.90428" fill="url(#paint0_linear_1168_5425)"/>
<path d="M0.0663566 7.90177C0.0659225 9.29445 0.429767 10.654 1.12149 11.8524L0 15.9471L4.19045 14.8484C5.34505 15.4779 6.64502 15.8098 7.96781 15.8103H7.97122C12.3277 15.8103 15.8741 12.265 15.876 7.90809C15.8767 5.79659 15.0551 3.81104 13.5628 2.3174C12.0703 0.823938 10.0858 0.000868217 7.97122 0C3.61402 0 0.068093 3.54481 0.0663566 7.90177ZM2.56192 11.646L2.40546 11.3976C1.74772 10.3518 1.40056 9.14326 1.40105 7.90226C1.40242 4.28087 4.34964 1.33457 7.97371 1.33457C9.72874 1.33532 11.3781 2.01947 12.6187 3.26078C13.8592 4.5022 14.5418 6.15243 14.5413 7.9076C14.5397 11.529 11.5924 14.4757 7.97122 14.4757H7.96862C6.78952 14.475 5.63312 14.1584 4.62462 13.56L4.38462 13.4177L1.89792 14.0696L2.56192 11.646Z" fill="url(#paint1_linear_1168_5425)"/>
<path d="M5.99552 4.59831C5.84755 4.26944 5.69183 4.2628 5.55112 4.25704C5.43589 4.25208 5.30417 4.25245 5.17257 4.25245C5.04085 4.25245 4.82684 4.302 4.64594 4.49952C4.46485 4.69722 3.95459 5.17499 3.95459 6.14671C3.95459 7.11843 4.66237 8.0576 4.76104 8.1895C4.85983 8.32116 6.12743 10.3791 8.13499 11.1708C9.80346 11.8287 10.143 11.6978 10.5051 11.6649C10.8673 11.632 11.6737 11.1872 11.8382 10.726C12.0029 10.2649 12.0029 9.86956 11.9535 9.78696C11.9042 9.70466 11.7724 9.65524 11.5749 9.55651C11.3774 9.45778 10.4063 8.97989 10.2253 8.91397C10.0442 8.84811 9.91254 8.81524 9.78082 9.01301C9.6491 9.21046 9.27087 9.65524 9.15558 9.78696C9.04042 9.91899 8.92513 9.93542 8.72767 9.83663C8.53003 9.73753 7.89394 9.52922 7.13927 8.85642C6.55211 8.33288 6.15571 7.68637 6.04048 7.4886C5.92526 7.29115 6.02814 7.18411 6.12718 7.08569C6.21592 6.99719 6.32476 6.85505 6.42361 6.73977C6.52209 6.62442 6.55496 6.54212 6.62082 6.4104C6.68674 6.27856 6.65375 6.16321 6.60445 6.06442C6.55496 5.96563 6.17115 4.98882 5.99552 4.59831Z" fill="white"/>
<defs>
<linearGradient id="paint0_linear_1168_5425" x1="766.579" y1="1539.78" x2="766.579" y2="0.276123" gradientUnits="userSpaceOnUse">
<stop stop-color="#1FAF38"/>
<stop offset="1" stop-color="#60D669"/>
</linearGradient>
<linearGradient id="paint1_linear_1168_5425" x1="793.798" y1="1594.71" x2="793.798" y2="0" gradientUnits="userSpaceOnUse">
<stop stop-color="#F9F9F9"/>
<stop offset="1" stop-color="white"/>
</linearGradient>
</defs>
</svg>
