<svg width="737" height="421" viewBox="0 0 737 421" fill="none" xmlns="http://www.w3.org/2000/svg">
<g filter="url(#filter0_d_14_811)">
<path d="M696.581 379.995C216.239 188.991 189.73 255.656 -290.612 64.6522M696.581 379.995C216.239 188.991 209.612 205.657 -270.731 14.6537M696.581 379.995C216.239 188.991 242.747 122.326 -237.595 -68.6772M696.581 379.995C216.239 188.991 236.12 138.993 -244.222 -52.011M696.581 379.995L-264.103 -2.01247M696.581 379.995C216.239 188.991 196.357 238.99 -283.985 47.986M696.581 379.995C216.239 188.991 202.985 222.323 -277.358 31.3199M696.581 379.995C216.239 188.991 222.866 172.325 -257.476 -18.6786M696.581 379.995C216.239 188.991 229.493 155.659 -250.849 -35.3448" stroke="url(#paint0_linear_14_811)" stroke-opacity="0.7" stroke-linecap="round" stroke-linejoin="bevel" shape-rendering="crispEdges"/>
</g>
<defs>
<filter id="filter0_d_14_811" x="-331.112" y="-109.177" width="1067.88" height="529.637" filterUnits="userSpaceOnUse" color-interpolation-filters="sRGB">
<feFlood flood-opacity="0" result="BackgroundImageFix"/>
<feColorMatrix in="SourceAlpha" type="matrix" values="0 0 0 0 0 0 0 0 0 0 0 0 0 0 0 0 0 0 127 0" result="hardAlpha"/>
<feOffset/>
<feGaussianBlur stdDeviation="20"/>
<feComposite in2="hardAlpha" operator="out"/>
<feColorMatrix type="matrix" values="0 0 0 0 0.309804 0 0 0 0 0.27451 0 0 0 0 0.898039 0 0 0 0.35 0"/>
<feBlend mode="normal" in2="BackgroundImageFix" result="effect1_dropShadow_14_811"/>
<feBlend mode="normal" in="SourceGraphic" in2="effect1_dropShadow_14_811" result="shape"/>
</filter>
<linearGradient id="paint0_linear_14_811" x1="696.581" y1="379.995" x2="-264.103" y2="-2.01247" gradientUnits="userSpaceOnUse">
<stop stop-color="#EDEDFC"/>
<stop offset="1" stop-color="#4F46E5"/>
</linearGradient>
</defs>
</svg>
