<svg width="2360" height="1775" viewBox="0 0 2360 1775" fill="none" xmlns="http://www.w3.org/2000/svg">
<g filter="url(#filter0_d_15_2860)">
<path d="M1235.88 689.061C1716.23 880.064 1593.4 1188.96 2073.74 1379.96M1235.88 689.061C1716.23 880.064 1685.52 957.288 2165.86 1148.29M1235.88 689.061C1716.23 880.064 1839.06 571.171 2319.4 762.174M1235.88 689.061C1716.23 880.064 1808.35 648.394 2288.69 839.398M1235.88 689.061L2196.57 1071.07M1235.88 689.061C1716.23 880.064 1624.11 1111.73 2104.45 1302.74M1235.88 689.061C1716.23 880.064 1654.81 1034.51 2135.15 1225.51M1235.88 689.061C1716.23 880.064 1746.93 802.841 2227.28 993.845M1235.88 689.061C1716.23 880.064 1777.64 725.618 2257.98 916.621" stroke="url(#paint0_linear_15_2860)" stroke-opacity="0.7" stroke-linecap="round" stroke-linejoin="bevel" shape-rendering="crispEdges"/>
</g>
<g filter="url(#filter1_d_15_2860)">
<path d="M1240.54 690.832C760.199 499.828 733.69 566.493 253.348 375.489M1240.54 690.832C760.199 499.828 753.571 516.494 273.229 325.491M1240.54 690.832C760.199 499.828 786.707 433.163 306.365 242.16M1240.54 690.832C760.199 499.828 780.08 449.83 299.738 258.826M1240.54 690.832L279.856 308.824M1240.54 690.832C760.199 499.828 740.317 549.827 259.975 358.823M1240.54 690.832C760.199 499.828 746.944 533.16 266.602 342.157M1240.54 690.832C760.199 499.828 766.826 483.162 286.483 292.158M1240.54 690.832C760.199 499.828 773.453 466.496 293.111 275.492" stroke="url(#paint1_linear_15_2860)" stroke-opacity="0.7" stroke-linecap="round" stroke-linejoin="bevel" shape-rendering="crispEdges"/>
</g>
<defs>
<filter id="filter0_d_15_2860" x="1195.7" y="648.596" width="1164.2" height="771.866" filterUnits="userSpaceOnUse" color-interpolation-filters="sRGB">
<feFlood flood-opacity="0" result="BackgroundImageFix"/>
<feColorMatrix in="SourceAlpha" type="matrix" values="0 0 0 0 0 0 0 0 0 0 0 0 0 0 0 0 0 0 127 0" result="hardAlpha"/>
<feOffset/>
<feGaussianBlur stdDeviation="20"/>
<feComposite in2="hardAlpha" operator="out"/>
<feColorMatrix type="matrix" values="0 0 0 0 0.309804 0 0 0 0 0.27451 0 0 0 0 0.898039 0 0 0 0.35 0"/>
<feBlend mode="normal" in2="BackgroundImageFix" result="effect1_dropShadow_15_2860"/>
<feBlend mode="normal" in="SourceGraphic" in2="effect1_dropShadow_15_2860" result="shape"/>
</filter>
<filter id="filter1_d_15_2860" x="212.848" y="201.659" width="1067.88" height="529.637" filterUnits="userSpaceOnUse" color-interpolation-filters="sRGB">
<feFlood flood-opacity="0" result="BackgroundImageFix"/>
<feColorMatrix in="SourceAlpha" type="matrix" values="0 0 0 0 0 0 0 0 0 0 0 0 0 0 0 0 0 0 127 0" result="hardAlpha"/>
<feOffset/>
<feGaussianBlur stdDeviation="20"/>
<feComposite in2="hardAlpha" operator="out"/>
<feColorMatrix type="matrix" values="0 0 0 0 0.309804 0 0 0 0 0.27451 0 0 0 0 0.898039 0 0 0 0.35 0"/>
<feBlend mode="normal" in2="BackgroundImageFix" result="effect1_dropShadow_15_2860"/>
<feBlend mode="normal" in="SourceGraphic" in2="effect1_dropShadow_15_2860" result="shape"/>
</filter>
<linearGradient id="paint0_linear_15_2860" x1="1235.88" y1="689.061" x2="2196.57" y2="1071.07" gradientUnits="userSpaceOnUse">
<stop stop-color="#EDEDFC"/>
<stop offset="1" stop-color="#4F46E5"/>
</linearGradient>
<linearGradient id="paint1_linear_15_2860" x1="1240.54" y1="690.832" x2="279.856" y2="308.824" gradientUnits="userSpaceOnUse">
<stop stop-color="#EDEDFC"/>
<stop offset="1" stop-color="#4F46E5"/>
</linearGradient>
</defs>
</svg>
